<?xml version="1.0" encoding="UTF-8" standalone="no"?>
<svg
   xmlns:dc="http://purl.org/dc/elements/1.1/"
   xmlns:cc="http://creativecommons.org/ns#"
   xmlns:rdf="http://www.w3.org/1999/02/22-rdf-syntax-ns#"
   xmlns:svg="http://www.w3.org/2000/svg"
   xmlns="http://www.w3.org/2000/svg"
   viewBox="0 0 580 217.5"
   height="217.5"
   width="100"
   xml:space="preserve"
   version="1.1"
   id="svg2"><metadata
     id="metadata8"><rdf:RDF><cc:Work
         rdf:about=""><dc:format>image/svg+xml</dc:format><dc:type
           rdf:resource="http://purl.org/dc/dcmitype/StillImage" /></cc:Work></rdf:RDF></metadata><defs
     id="defs6" /><g
     transform="matrix(1.25,0,0,-1.25,0,217.5)"
     id="g10"><g
       transform="scale(0.1,0.1)"
       id="g12"><path
         id="path14"
         style="fill-opacity:1;fill-rule:nonzero;stroke:none"
         d="m 1289.67,1140 -269.67,90 0,390 270,-80 -0.33,-400" /><path
         id="path16"
         style="fill-opacity:1;fill-rule:nonzero;stroke:none"
         d="m 1360,1540 270,80 -0.94,-389.73 L 1360,1140 l 0,400" /><path
         id="path18"
         style="fill-opacity:1;fill-rule:nonzero;stroke:none"
         d="M 1575,1662.23 1323.36,1740 1075,1662.23 l 248.72,-66.67 251.28,66.67" /><path
         id="path20"
         style="fill-opacity:1;fill-rule:nonzero;stroke:none"
         d="m 1969.67,1140 -269.67,90 0,390 270,-80 -0.33,-400" /><path
         id="path22"
         style="fill-opacity:1;fill-rule:nonzero;stroke:none"
         d="m 2040,1540 270,80 -0.94,-389.73 L 2040,1140 l 0,400" /><path
         id="path24"
         style="fill-opacity:1;fill-rule:nonzero;stroke:none"
         d="M 2255,1662.23 2003.36,1740 1755,1662.23 l 248.72,-66.67 251.28,66.67" /><path
         id="path26"
         style="fill-opacity:1;fill-rule:nonzero;stroke:none"
         d="M 270,970 0,1050 0,660 269.672,570 270,970" /><path
         id="path28"
         style="fill-opacity:1;fill-rule:nonzero;stroke:none"
         d="M 340,970 610,1050 609.063,660.262 340,570 l 0,400" /><path
         id="path30"
         style="fill-opacity:1;fill-rule:nonzero;stroke:none"
         d="M 555,1092.23 303.359,1170 55,1092.23 303.723,1025.56 555,1092.23" /><path
         id="path32"
         style="fill-opacity:1;fill-rule:nonzero;stroke:none"
         d="M 949.672,570 680,660 l 0,390 270,-80 -0.328,-400" /><path
         id="path34"
         style="fill-opacity:1;fill-rule:nonzero;stroke:none"
         d="m 1020,970 270,80 -0.94,-389.738 L 1020,570 l 0,400" /><path
         id="path36"
         style="fill-opacity:1;fill-rule:nonzero;stroke:none"
         d="M 1235,1092.23 983.359,1170 735,1092.23 983.723,1025.56 1235,1092.23" /><path
         id="path38"
         style="fill-opacity:1;fill-rule:nonzero;stroke:none"
         d="M 609.672,0 340,90 340,480 610,400 609.672,0" /><path
         id="path40"
         style="fill-opacity:1;fill-rule:nonzero;stroke:none"
         d="M 680,400 950,480 949.063,90.2617 680,0 l 0,400" /><path
         id="path42"
         style="fill-opacity:1;fill-rule:nonzero;stroke:none"
         d="M 895,522.23 643.359,600 395,522.23 643.723,455.559 895,522.23" /></g></g></svg>