<?xml version="1.0" encoding="utf-8"?>
<!-- Generator: Adobe Illustrator 21.1.0, SVG Export Plug-In . SVG Version: 6.00 Build 0)  -->
<svg version="1.1" id="Layer_1" xmlns="http://www.w3.org/2000/svg" xmlns:xlink="http://www.w3.org/1999/xlink" x="0px" y="0px"
	 viewBox="0 0 322.2 308" style="enable-background:new 0 0 322.2 308;" xml:space="preserve">
<style type="text/css">
	.st0{fill:#00A9E5;}
	.st1{fill:#353535;}
	.st2{fill:none;}
	.st3{fill:#00BFB3;}
	.st4{fill:#019B8F;}
	.st5{fill:#FFFFFF;}
	.st6{fill:#93C90E;}
	.st7{fill:#74A300;}
	.st8{fill:#0078A0;}
	.st9{fill-rule:evenodd;clip-rule:evenodd;fill:#F04E98;}
	.st10{fill-rule:evenodd;clip-rule:evenodd;fill:#00A9E5;}
	.st11{fill-rule:evenodd;clip-rule:evenodd;fill:#FED10A;}
	.st12{fill-rule:evenodd;clip-rule:evenodd;fill:#00BFB3;}
	.st13{fill-rule:evenodd;clip-rule:evenodd;fill:#FFFFFF;}
	.st14{fill:#F9B110;}
	.st15{fill:#FED10A;}
	.st16{fill:#3EBEB0;}
	.st17{fill:#F04E98;}
</style>
<path id="Elasticsearch_4_" class="st5" d="M147.7,191.8H45.8c-3.7-11.9-5.8-24.6-5.8-37.8s2-25.9,5.8-37.8h101.8h65.9
	c20.8,0,37.6,17,37.6,37.9c0,20.8-16.8,37.7-37.6,37.7H147.7z M142.9,204.4H50.6c9.8,22.4,26,41.5,46.2,54.8l0,0
	c19.9,13.1,43.7,20.8,69.3,20.8c43.7,0,82.2-22.3,104.8-56.1c-11.6-12-27.9-19.5-45.9-19.5H142.9z M225,103.6
	c18,0,34.3-7.5,45.9-19.5C248.3,50.3,209.8,28,166,28c-25.6,0-49.4,7.7-69.3,20.8l0,0c-20.2,13.4-36.4,32.4-46.2,54.8h92.4H225z"/>
</svg>
