<?xml version="1.0" encoding="utf-8"?>
<!-- Generator: Adobe Illustrator 19.2.1, SVG Export Plug-In . SVG Version: 6.00 Build 0)  -->
<svg version="1.1" id="layer" xmlns="http://www.w3.org/2000/svg" xmlns:xlink="http://www.w3.org/1999/xlink" x="0px" y="0px"
	 viewBox="0 0 652 652" style="enable-background:new 0 0 652 652;" xml:space="preserve">
<style type="text/css">
	.st0{fill:#0000F0;}
	.st1{fill:#FFFFFF;}
</style>
<path class="st0" d="M238.6,297.3v16.4h-2.9v-36.3h9.9c3.1,0,5.5,0.8,7.1,2.5c1.6,1.7,2.4,4.2,2.4,7.5c0,2-0.4,3.7-1.3,5.2
	c-0.9,1.5-2.1,2.6-3.8,3.3c1.8,0.6,3,1.6,3.8,3c0.7,1.4,1.1,3.3,1.1,5.5v3.4c0,1.1,0.1,2.2,0.3,3c0.2,0.9,0.5,1.6,1,2.2v0.6h-3
	c-0.5-0.6-0.9-1.4-1-2.5c-0.2-1-0.2-2.2-0.2-3.4v-3.3c0-2.3-0.5-4-1.5-5.3c-1-1.3-2.4-1.9-4.3-1.9H238.6z"/>
<path class="st1" d="M238.6,294.7V280h6.9c2.3,0,3.9,0.6,5,1.9s1.6,3.1,1.6,5.5c0,2.3-0.5,4.1-1.6,5.3c-1.1,1.3-2.8,1.9-5.3,1.9
	H238.6z"/>
<polygon class="st0" points="276.1,299.8 265.1,299.8 265.1,311.1 277.8,311.1 277.8,313.7 262.2,313.7 262.2,284.6 277.8,284.6 
	277.8,287.2 265.1,287.2 265.1,297.2 276.1,297.2 "/>
<path class="st0" d="M286.8,302.8v10.9h-2.9v-29.1h8.8c2.6,0,4.6,0.8,6,2.5c1.4,1.7,2.1,3.9,2.1,6.6s-0.7,4.9-2.1,6.6
	c-1.4,1.7-3.5,2.5-6.1,2.5H286.8z"/>
<path class="st1" d="M286.8,300.2v-13h5.9c1.8,0,3.1,0.6,3.9,1.9c0.9,1.3,1.3,2.8,1.3,4.7c0,1.8-0.4,3.4-1.3,4.6
	c-0.9,1.2-2.2,1.8-3.9,1.8H286.8z"/>
<path class="st0" d="M325.4,284.6v19.2c0,3.3-0.9,5.8-2.6,7.6c-1.7,1.8-4,2.7-6.9,2.7c-2.9,0-5.2-0.9-6.9-2.7
	c-1.7-1.8-2.6-4.3-2.6-7.6v-19.2h2.9v19.2c0,2.4,0.6,4.3,1.8,5.7c1.2,1.4,2.8,2,4.8,2c2,0,3.6-0.7,4.8-2c1.2-1.3,1.8-3.2,1.8-5.7
	v-19.2H325.4z"/>
<path class="st0" d="M331.7,313.7v-29.1h7.4c2.7,0,4.8,0.6,6.3,1.9c1.5,1.3,2.2,3.2,2.2,5.8c0,1.5-0.3,2.8-1,4
	c-0.7,1.1-1.6,1.9-2.8,2.4v0.1c1.4,0.3,2.5,1.1,3.3,2.4c0.8,1.2,1.2,2.7,1.2,4.5c0,2.7-0.7,4.7-2.1,6c-1.4,1.3-3.3,2-5.9,2H331.7z"
	/>
<path class="st1" d="M334.7,297.7v-10.3h4.5c1.9,0,3.3,0.4,4.2,1.2c0.9,0.8,1.3,2,1.3,3.8c0,1.8-0.5,3.1-1.4,4
	c-0.9,0.9-2.3,1.3-4.2,1.3H334.7z"/>
<path class="st1" d="M334.7,300.2h5.8c1.6,0,2.8,0.5,3.7,1.5c0.9,1,1.3,2.3,1.3,4c0,1.8-0.4,3.2-1.3,4.1c-0.9,0.9-2.1,1.4-3.7,1.4
	h-5.8V300.2z"/>
<polygon class="st0" points="357.3,311.1 368.2,311.1 368.2,313.7 354.4,313.7 354.4,284.6 357.3,284.6 "/>
<rect x="373.4" y="284.6" class="st0" width="2.9" height="29.1"/>
<path class="st0" d="M400.7,304.2c-0.2,3.3-1,5.8-2.5,7.4c-1.5,1.6-3.7,2.5-6.4,2.5c-2.7,0-4.9-1.1-6.6-3.4c-1.7-2.3-2.6-5.3-2.6-9
	v-5.1c0-3.7,0.9-6.7,2.6-9c1.7-2.3,3.9-3.4,6.6-3.4c2.7,0,4.9,0.8,6.4,2.5c1.5,1.6,2.4,4.1,2.5,7.4h-3c-0.1-2.5-0.7-4.3-1.6-5.5
	c-1-1.2-2.4-1.8-4.3-1.8c-1.9,0-3.4,0.9-4.5,2.7c-1.1,1.8-1.7,4.2-1.7,7.1v5.2c0,2.9,0.6,5.3,1.7,7.1c1.1,1.8,2.7,2.7,4.5,2.7
	c1.9,0,3.3-0.6,4.3-1.7c1-1.1,1.5-3,1.6-5.6H400.7z"/>
<path class="st0" d="M435.5,301.7c0,3.8-0.9,6.8-2.6,9.1c-1.7,2.2-4,3.3-6.9,3.3c-2.9,0-5.3-1.1-7-3.3c-1.7-2.2-2.6-5.2-2.6-9.1
	v-5.1c0-3.8,0.9-6.8,2.6-9.1c1.7-2.2,4-3.4,6.9-3.4c2.9,0,5.2,1.1,7,3.4c1.7,2.2,2.6,5.2,2.6,9.1V301.7z"/>
<path class="st1" d="M432.5,296.6v5.2c0,3.2-0.6,5.7-1.7,7.3c-1.2,1.7-2.8,2.5-4.9,2.5c-2.1,0-3.7-0.8-4.9-2.5
	c-1.2-1.7-1.7-4.1-1.7-7.3v-5.2c0-3.2,0.6-5.6,1.7-7.3c1.1-1.7,2.8-2.5,4.9-2.5c2.1,0,3.7,0.8,4.9,2.5
	C432,291,432.5,293.4,432.5,296.6z"/>
<polygon class="st0" points="455.7,300.4 444.7,300.4 444.7,313.7 441.8,313.7 441.8,284.6 457.4,284.6 457.4,287.2 444.7,287.2 
	444.7,297.7 455.7,297.7 "/>
<polygon class="st0" points="490.1,296.1 476.7,296.1 476.7,311.1 492.1,311.1 492.1,313.7 473.8,313.7 473.8,277.3 492,277.3 
	492,280 476.7,280 476.7,293.5 490.1,293.5 "/>
<path class="st0" d="M510.9,306.4c0-1.5-0.4-2.6-1.3-3.4c-0.9-0.8-2.5-1.7-4.9-2.5c-2.9-1-5-2-6.2-3.2c-1.3-1.2-1.9-3-1.9-5.4
	c0-2.4,0.7-4.3,2.3-5.7c1.5-1.4,3.6-2,6.2-2c2.7,0,4.8,0.8,6.3,2.3c1.5,1.5,2.2,3.7,2.2,6.6h-2.9c0-1.9-0.5-3.4-1.4-4.5
	c-1-1.1-2.3-1.7-4.1-1.7c-1.9,0-3.3,0.5-4.2,1.4c-0.9,1-1.4,2.2-1.4,3.7c0,1.5,0.4,2.6,1.2,3.4c0.8,0.8,2.4,1.7,5,2.5
	c2.9,1,4.9,2,6.2,3.2c1.3,1.2,1.9,3,1.9,5.3c0,2.5-0.8,4.4-2.4,5.7c-1.6,1.3-3.8,2-6.6,2c-2.6,0-4.7-0.7-6.4-2
	c-1.7-1.4-2.6-3.6-2.6-6.8h2.9c0,2.2,0.6,3.8,1.7,4.8c1.2,1,2.6,1.5,4.3,1.5c1.9,0,3.4-0.5,4.5-1.4
	C510.4,309.1,510.9,307.9,510.9,306.4z"/>
<polygon class="st0" points="535.5,287.2 528.1,287.2 528.1,313.7 525.2,313.7 525.2,287.2 518,287.2 518,284.6 535.5,284.6 "/>
<path class="st0" d="M559.3,301.7c0,3.8-0.9,6.8-2.6,9.1c-1.7,2.2-4,3.3-6.9,3.3c-2.9,0-5.3-1.1-7-3.3c-1.7-2.2-2.6-5.2-2.6-9.1
	v-5.1c0-3.8,0.9-6.8,2.6-9.1c1.7-2.2,4-3.4,6.9-3.4c2.9,0,5.2,1.1,6.9,3.4c1.8,2.2,2.6,5.2,2.6,9.1V301.7z"/>
<path class="st1" d="M556.4,296.6v5.2c0,3.2-0.6,5.7-1.7,7.3c-1.1,1.7-2.8,2.5-4.9,2.5c-2.1,0-3.7-0.8-4.9-2.5
	c-1.2-1.7-1.7-4.1-1.7-7.3v-5.2c0-3.2,0.6-5.6,1.7-7.3c1.1-1.7,2.8-2.5,4.9-2.5c2.1,0,3.7,0.8,4.9,2.5
	C555.8,291,556.4,293.4,556.4,296.6z"/>
<polygon class="st0" points="584.4,313.7 581.5,313.7 568.6,290.2 568.5,290.2 568.5,313.7 565.6,313.7 565.6,284.6 568.5,284.6 
	581.4,308.1 581.5,308.1 581.5,284.6 584.4,284.6 "/>
<rect x="591.5" y="284.6" class="st0" width="2.9" height="29.1"/>
<polygon class="st0" points="608.5,284.6 611.3,284.6 620.5,313.7 617.5,313.7 615.1,306.2 604.7,306.2 602.4,313.7 599.3,313.7 "/>
<polygon class="st1" points="609.9,289.1 609.9,289.1 614.3,303.6 605.5,303.6 "/>
<polygon class="st0" points="249.8,356.5 239.8,356.5 239.8,365.9 251.5,365.9 251.5,369.7 234.8,369.7 234.8,340.6 251.5,340.6 
	251.5,344.4 239.8,344.4 239.8,352.6 249.8,352.6 "/>
<rect x="256.1" y="352" class="st0" width="10.6" height="3.9"/>
<path class="st0" d="M277.1,354v15.7h-5v-36.3h11c3.3,0,5.8,0.9,7.5,2.6c1.7,1.7,2.5,4.3,2.5,7.7c0,2-0.4,3.6-1.3,5
	c-0.9,1.4-2.1,2.5-3.8,3.3c1.8,0.6,3,1.7,3.8,3.1c0.7,1.4,1.1,3.3,1.1,5.5v3.2c0,1.1,0.1,2.2,0.3,3.1c0.2,0.9,0.6,1.7,1.1,2.2v0.6
	h-5.1c-0.6-0.6-0.9-1.4-1.1-2.5c-0.2-1.1-0.2-2.3-0.2-3.5v-3.1c0-2.1-0.4-3.7-1.2-4.8c-0.8-1.2-2-1.7-3.5-1.7H277.1z"/>
<path class="st1" d="M277.1,350.1v-12.9h5.9c1.8,0,3.1,0.6,4,1.7c0.8,1.1,1.2,2.7,1.2,4.9c0,2.1-0.4,3.7-1.3,4.7
	c-0.9,1.1-2.3,1.6-4.2,1.6H277.1z"/>
<polygon class="st0" points="314.4,356.5 304.3,356.5 304.3,365.9 316.1,365.9 316.1,369.7 299.4,369.7 299.4,340.6 316.1,340.6 
	316.1,344.4 304.3,344.4 304.3,352.6 314.4,352.6 "/>
<path class="st0" d="M335.1,362.1c0-1.2-0.3-2.2-1-2.9c-0.7-0.7-2-1.4-4-2.1c-3.1-0.9-5.3-1.9-6.6-3.2c-1.3-1.2-2-3.1-2-5.6
	c0-2.5,0.8-4.4,2.4-5.9c1.6-1.5,3.8-2.2,6.7-2.2c2.9,0,5.2,0.8,6.8,2.3c1.6,1.6,2.4,3.8,2.4,6.7h-5c0-1.6-0.3-2.9-1-3.8
	c-0.7-0.9-1.7-1.4-3.2-1.4s-2.5,0.4-3.2,1.2c-0.7,0.8-1,1.8-1,3c0,1.3,0.3,2.2,1,2.9c0.6,0.7,2,1.4,4.2,2.1c3,0.9,5.1,2,6.4,3.2
	c1.3,1.3,2,3.1,2,5.6c0,2.5-0.9,4.5-2.6,5.9c-1.7,1.4-4.1,2.1-7.1,2.1c-3,0-5.4-0.7-7.2-2.2c-1.8-1.4-2.7-3.7-2.7-6.8h5
	c0,1.9,0.5,3.3,1.4,4c0.9,0.8,2.1,1.2,3.5,1.2c1.5,0,2.7-0.4,3.5-1.2C334.8,364.4,335.1,363.3,335.1,362.1z"/>
<rect x="345.2" y="340.6" class="st0" width="5" height="29.1"/>
<path class="st0" d="M356.6,369.6v-29.1h8.9c2.9,0,5.4,1.1,7.3,3.3c1.9,2.2,2.9,5.1,2.9,8.7v5.2c0,3.6-1,6.4-2.9,8.6
	c-1.9,2.2-4.4,3.3-7.3,3.3H356.6z"/>
<path class="st1" d="M361.6,344.4h3.9c1.5,0,2.8,0.8,3.7,2.3c1,1.5,1.5,3.4,1.5,5.8v5.3c0,2.4-0.5,4.4-1.5,5.9
	c-1,1.5-2.2,2.3-3.7,2.3h-3.9V344.4z"/>
<polygon class="st0" points="396.2,356.5 386.2,356.5 386.2,365.9 398,365.9 398,369.7 381.2,369.7 381.2,340.6 398,340.6 
	398,344.4 386.2,344.4 386.2,352.6 396.2,352.6 "/>
<polygon class="st0" points="424.2,369.6 419.2,369.6 408.8,349.7 408.7,349.7 408.7,369.6 403.7,369.6 403.7,340.6 408.7,340.6 
	419.1,360.5 419.2,360.5 419.2,340.6 424.2,340.6 "/>
<path class="st0" d="M449.4,359.9c-0.2,3.4-1.1,6-2.8,7.7c-1.6,1.7-3.9,2.5-6.8,2.5c-2.9,0-5.3-1.1-7.1-3.4
	c-1.8-2.3-2.7-5.3-2.7-9.1v-5c0-3.8,0.9-6.8,2.7-9.1c1.8-2.3,4.2-3.4,7.1-3.4c2.9,0,5.2,0.9,6.8,2.6c1.6,1.7,2.6,4.2,2.8,7.7h-5
	c-0.2-2.2-0.7-3.8-1.4-4.8c-0.7-1-1.8-1.5-3.2-1.5c-1.5,0-2.7,0.8-3.6,2.4c-0.9,1.6-1.3,3.7-1.3,6.2v5c0,2.6,0.4,4.7,1.3,6.3
	c0.9,1.6,2.1,2.4,3.6,2.4c1.5,0,2.6-0.5,3.3-1.5c0.7-1,1.1-2.6,1.3-4.9H449.4z"/>
<polygon class="st0" points="463,354 468.2,340.6 473.7,340.6 465.4,359.2 465.4,369.7 460.5,369.7 460.5,358.9 452.3,340.6 
	457.8,340.6 "/>
<path id="Logo_1_" class="st0" d="M75.9,402c0,0.5,0.1,1,0.4,1.4c0.9-0.9,2.1-1.6,3.4-2c0.5-1.9,2.3-3.3,4.4-3.3c0.2,0,0.4,0,0.5,0
	c-1.7,0.5-3.2,1.8-3.8,3.5c-1.1,0.4-1.9,1.4-1.9,2.6c0,0.6,0.2,1.1,0.5,1.5c0.9-1.1,2.2-1.8,3.6-2.2c0.4-2,2.1-3.6,4.2-3.8
	c-1.8,0.8-3.1,2.6-3.1,4.6c0,0.8,0.2,1.5,0.4,2.1c0.3-1.2,1.4-2,2.6-2c0.3,0,0.6,0.1,0.9,0.2c0.4,0.2,0.8,0.2,1.2,0.2
	c2,0,3.6-1.6,3.6-3.7c0-0.4-0.1-0.8-0.2-1.2c1,0.3,1.7,1.2,1.7,2.2c0,0.5-0.1,0.9-0.4,1.3c0.3,0,0.5,0.1,0.8,0.1
	c2.4,0,4.3-1.8,4.6-4.1c1.2-0.6,2.2-1.5,3.1-2.6l0.6,3.1c0.1,0.2,0,0.4,0,0.6c0,0.2-0.2,0.4-0.3,0.5l2.6-2.7
	c0.2-0.2,0.3-0.3,0.3-0.5c0.1-0.2,0.1-0.4,0-0.6l-0.8-3.8c0-0.2,0-0.4,0-0.6c0.1-0.2,0.2-0.4,0.3-0.5l2.1-2.1
	c-0.2,0.2-0.3,0.3-0.3,0.5c-0.1,0.2-0.1,0.4,0,0.6l0.8,3.8c0.1,0.2,0,0.4,0,0.6c-0.1,0.2-0.2,0.4-0.3,0.5l2.3-2.4
	c0.2-0.1,0.3-0.3,0.3-0.5c0.1-0.2,0.1-0.4,0-0.6l-0.8-3.8c-0.1-0.2,0-0.4,0-0.6c0.1-0.2,0.2-0.4,0.3-0.5l2.1-2.1
	c-0.2,0.2-0.3,0.3-0.3,0.5c-0.1,0.2-0.1,0.4,0,0.6l0.8,3.8c0.1,0.2,0,0.4,0,0.6c-0.1,0.2-0.2,0.4-0.3,0.5l2.3-2.4
	c0.2-0.2,0.2-0.3,0.3-0.5c0.1-0.2,0.1-0.4,0-0.6l-0.4-1.8c-0.4-2.1,1.8-4.5,3.5-4.7c0.2-0.4,0.3-0.8,0.3-1.3c0-2.1-2.5-3.8-5.6-3.8
	c-1.5,0-2.9,0.4-3.9,1.1c0.4,1.2,0.5,2.4-3.5,3c-3.2,0.5-6,1.1-8.1,2.9c-3.3,2.8-3,6.5-4.8,7.9c0.8,0.2,1.9,0.2,3,0
	c0.7-0.2,1.4-0.4,1.9-0.7c-0.3,0.7-1.1,1.3-2.2,1.8c-0.3,1.3-1.5,2.6-3.1,3.1c-1,0.4-2,0.4-2.8,0.2l-3.8-1.1c-0.5-0.1-1-0.2-1.5-0.2
	c-2.8,0-5.1,2.2-5.5,5C77,399.5,75.9,400.6,75.9,402L75.9,402z M113.6,251c2.2-2.2,4.7-3.9,7.5-5.3c-0.1-0.3-0.1-0.7-0.1-1v0
	c-11.6,1.9-22.1,7.9-31.6,7.9c-2.7,0-4.7-1-5.1-2.7c-0.1-0.3-0.1-0.7,0-1c0.1-0.6,0.7-1.2,1.4-1.2c0.8,0,1.4,0.7,1.4,1.5
	c0,0.4-0.2,0.7-0.4,1c0.3,0,0.6,0,0.9,0c0.7,0,1.5-0.1,2.1-0.3c1-0.3,1.8-1.2,1.8-2.3c0-1.3-1.1-2.4-2.4-2.4c-0.1,0-0.1,0-0.2,0
	c0.3-0.1,0.7-0.2,1.1-0.2c1.5,0,2.8,1.2,2.8,2.8c0,0.1,0,0.2,0,0.2c4.2-0.1,8.8-3.9,9.9-5.4c-1.3,0.3-2.7,0.5-4.2,0.5
	c-1.7,0-3.3-0.2-4.7-0.6c-2-0.5-4-0.8-5.6-0.8c-5.1,0-9.2,3.3-9.2,7.4c0,3.4,2.8,6.4,6.7,7.2C94.5,258,104.8,252.8,113.6,251
	L113.6,251z M63.8,263.1c0.2-1.2,0.3-2.5,0.3-3.6l-1.1,1.3c-0.2-0.5-0.4-0.8-0.5-1.1c-0.1-0.2-0.2-0.4-0.4-0.4
	c-0.1,0-0.2,0.1-0.3,0.1c-0.1,0-0.3,0-0.5,0c-0.1,0-0.3,0-0.5,0c-0.1,0-0.2-0.1-0.3-0.1c-0.2,0-0.2,0.2-0.4,0.4
	c-0.1,0.3-0.3,0.6-0.5,1.1l-1.1-1.3c0,1.2,0.1,2.4,0.3,3.6c0.8-0.2,1.7-0.2,2.5-0.2C62.2,262.8,63,262.9,63.8,263.1L63.8,263.1z
	 M64.3,266.4c0.1-1.4-1.5-1.9-3-1.9s-3.1,0.5-3,1.9c0.2,1.7,1.8,0.9,3,0.9C62.6,267.3,64.2,268.2,64.3,266.4L64.3,266.4z
	 M68.6,256.2c-0.3,0.1-0.5,0.3-0.5,0.6c-0.2,1.7-0.9,2.3-1.9,2.7c0,1.7-0.3,2.9-0.7,4.5c1.3,2.7,0.3,4.6-0.7,5
	c-1,0.4-2.3-0.1-3.4-0.1c-1.1,0-2.4,0.5-3.4,0.1c-1-0.4-2-2.3-0.7-5c-0.4-1.6-0.7-2.8-0.7-4.5c-1.1-0.4-1.8-1.1-1.9-2.7
	c0-0.3-0.2-0.5-0.5-0.6c-4.3-1.2-4.6-6.5-2.5-7.9c-0.2,2.4-0.4,5.7,4.4,6.1c-0.1,2.8,1.1,3.5,2.4,3.5c1,0,1.6-0.3,1.8-0.4
	c0.9-0.5,0.3-1.2,0.1-1.4c-0.6-0.6-0.9-1.4-0.8-2.2c0-0.1,0.1-0.2,0.2-0.2h1.6H63c0.1,0,0.2,0.1,0.2,0.2c0.1,0.8-0.2,1.6-0.8,2.2
	c-0.2,0.2-0.9,1,0,1.4c0.3,0.1,0.8,0.5,1.9,0.4c1.2,0,2.4-0.7,2.3-3.5c4.8-0.4,4.6-3.8,4.4-6.1C73.2,249.8,72.8,255.1,68.6,256.2
	L68.6,256.2z M69.9,247c0,1.2-0.9,2.6-1.9,2.6h-0.9c0.2,0.3,0.4,0.6,0.4,1c0,0.9-0.7,1.6-1.6,1.6c-0.9,0-1.6-0.7-1.6-1.6
	c0-0.4,0.1-0.8,0.4-1h-1c-0.3,0-0.6,0.1-0.8,0.5c-0.1-0.5-0.1-1.1,0-1.4c0.2-0.5,0.5-0.8,0.9-0.8H68C68.8,247.9,69.4,247.6,69.9,247
	L69.9,247z M69.3,245h-1.5c-0.7,0-1.2-0.3-1.7-0.8l-1.7-2.2c-0.3-0.3-0.5-0.6-0.9-0.8h1.7c0.5,0,1,0.2,1.3,0.7l1.8,2.3
	C68.8,244.6,68.9,244.9,69.3,245L69.3,245z M61.6,241.3l2.2,3.1c0.3,0.5,0.7,0.8,1.1,1h-2c-0.8,0-1.2-0.4-1.5-0.9l-1.7-2.6
	c-0.6-1-0.9-1.2-1.7-1.5h1.8C60.6,240.4,61.2,240.8,61.6,241.3L61.6,241.3z M56.7,241.9l1.8,2.3c0.4,0.5,0.5,0.8,1,0.9h-1.5
	c-0.7,0-1.3-0.3-1.7-0.8l-1.7-2.2c-0.3-0.3-0.5-0.6-0.9-0.8h1.7C55.9,241.2,56.3,241.4,56.7,241.9L56.7,241.9z M55.6,249.6h-0.9
	c-1,0-1.9-1.3-1.9-2.6c0.6,0.6,1.1,0.9,1.9,0.9H59c0.4,0,0.8,0.3,0.9,0.8c0.1,0.4,0.1,0.9,0,1.4c-0.2-0.4-0.5-0.5-0.8-0.5h-1
	c0.2,0.3,0.4,0.6,0.4,1c0,0.9-0.7,1.6-1.6,1.6c-0.9,0-1.6-0.7-1.6-1.6C55.2,250.2,55.4,249.9,55.6,249.6L55.6,249.6z M50.4,269.9
	l0.5-1c0.1-0.2,0.2-0.4,0.2-0.6c0-0.2-0.1-0.4-0.2-0.6l1.4,2.6c0.1,0.2,0.2,0.4,0.2,0.6c0,0.2,0,0.4-0.1,0.6l-0.1,0.3
	c-0.9,1.7-1.7,4.8-0.8,6.7c-2.1-0.8-2.8-2.6-2.6-4.1c-3.9-3.7-4.9-7.5-2.1-10.7l1.4-1.7c0.2-0.2,0.2-0.3,0.3-0.5
	c0.1-0.2,0.1-0.4,0-0.6l0.8,2.8c0.1,0.2,0.1,0.4,0,0.6c0,0.2-0.1,0.4-0.3,0.6l-0.4,0.5c-1.5,1.7-1.1,4,1.2,6.1
	C49.9,270.7,50.1,270.4,50.4,269.9L50.4,269.9z M147,280.5c0.2-0.4,0.2-0.8,0.2-1.2c0-1.8-1.4-3.2-3.2-3.2h-3.2
	c-0.2,0-0.4-0.1-0.6-0.2c-0.2-0.1-0.3-0.2-0.5-0.4l-1.6-2.4c0.1,0.2,0.3,0.3,0.5,0.4c0.2,0.1,0.4,0.2,0.6,0.2h4.3
	c0.2,0,0.4,0.1,0.6,0.2s0.3,0.2,0.5,0.4l-2-2.9c-0.1-0.2-0.3-0.3-0.5-0.4c-0.2-0.1-0.4-0.2-0.6-0.2h-4.2c-0.2,0-0.4,0-0.6-0.2
	c-0.2-0.1-0.4-0.2-0.5-0.4l-1.8-2.7c0.1,0.2,0.3,0.3,0.5,0.4c0.2,0.1,0.4,0.2,0.6,0.2l4.2,0c0.2,0,0.4,0.1,0.6,0.2
	c0.2,0.1,0.3,0.2,0.5,0.4l-2-2.9c-0.1-0.2-0.3-0.3-0.5-0.4c-0.2-0.1-0.4-0.1-0.6-0.1h-3.4c-0.2,0-0.4-0.1-0.6-0.2
	c-0.2-0.1-0.3-0.2-0.5-0.4l-2.3-3.3c4.6-0.5,8.3-3,9-6.5c1-4.4-3.4-8.7-9.8-9.7c-1.1-0.2-1.9-1.1-1.9-2.2c0-0.9,0.6-1.8,1.4-2.1
	c-0.7-0.3-1.4-0.5-2.2-0.5c-2.8,0-5.1,2-5.1,4.5c0,0.4,0.1,0.9,0.2,1.3c-3.2,1.4-6,3.8-8.2,6.4c2.4-0.6,4.8-1,7.4-1
	c0-0.1,0-0.2,0-0.4c0-1.9,1.5-3.5,3.5-3.5h0.1c-1.3,0.6-1.9,1.8-1.9,2.6c0,1,0.8,1.8,1.8,1.8c0.4,0,0.7-0.1,1-0.3
	c-0.1-0.2-0.1-0.5-0.1-0.7c0-1.4,1.1-2.5,2.5-2.5c0.1,0,0.2,0,0.4,0c-0.9,0.4-1.6,1.4-1.6,2.5c0,1.5,1.2,2.8,2.8,2.8
	c0.2,0,0.3,0,0.5,0c-0.1-0.2-0.1-0.3-0.1-0.5c0-1.1,0.9-2,2-2c1.1,0,2,0.9,2,2c0,2.4-2.7,2.6-4.6,2.1c-5.5-1.6-10.7-2.3-15.7-1.6
	c-6.4,0.9-16.9,5.2-28,4.9c-2.5-0.1-5.2-0.5-7.9-1.2c0.3,0.4,0.6,0.6,0.7,0.8c1.1,1.7,1.5,3.5,0.5,5.7c0-2.5-2-4.5-3.7-5.8
	c-0.7-0.5-1-1-0.9-1.6l0.5-2.9c0,0.2,0,0.4,0,0.6c0.1,0.2,0.2,0.4,0.3,0.5l1.1,1c0.4-2.9-0.2-5.6-2-8.1c0.8-2,0.9-4.2,0.4-6.3
	c-0.2,1.6-1,2.3-1.7,2.7c-1.4,0.9-1.6,2.3-0.9,3.2c-1.1-0.6-2.7-2.7-1.8-3.9c1-1.3,3.7-0.7,4-3c-1.8-0.6-3.6-0.2-4.1,0
	c-1-1.2-2.4-1.8-4.1-1.8c-1.4-1.2-3.1-1.7-5.2-1.5c-2.1-0.2-3.9,0.3-5.2,1.5c-1.7,0-3.1,0.6-4.1,1.8c-0.5-0.1-2.3-0.5-4.1,0
	c0.3,2.3,3,1.7,4,3c0.9,1.2-0.6,3.4-1.8,3.9c0.7-0.9,0.5-2.4-0.9-3.2c-0.7-0.4-1.5-1.1-1.7-2.7c-0.5,2.1-0.4,4.3,0.4,6.3
	c-1.7,2.5-2.4,5.2-2,8.1l1.1-1c0.2-0.2,0.3-0.3,0.3-0.5c0.1-0.2,0.1-0.4,0-0.6l0.5,2.9c0.1,0.6-0.2,1.1-0.9,1.6
	c-1.7,1.3-3.8,3.3-3.7,5.8c-1-2.2-0.6-4.1,0.5-5.7c-3.3-1.8-5.7-4.7-6.2-5.2c-1-1.1-0.9-2.6,0.1-3.9c1.7-2.5,2.1-5.1,0-6.9
	c0-0.1,0-0.3,0-0.4c0-1.6-1.2-3-2.7-3.3c0.3,0.4,0.5,1,0.5,1.6c0,0.7-0.2,1.3-0.6,1.7c0.3,0.4,0.5,0.9,0.5,1.5
	c0,0.7-0.3,1.4-0.8,1.8c0.1-0.3,0.1-0.5,0.1-0.8c0-1.7-1-3.1-2.4-3.5c-0.2-1.2-1.3-2.2-2.6-2.2c-0.7,0-1.4,0.3-1.9,0.8
	c1,0.1,1.8,0.9,1.9,1.9c-0.5,0.4-0.9,0.9-1.1,1.4h0.1c1.7,0,3.1,1.4,3.1,3.1c0,0.2,0,0.4-0.1,0.6c-0.1-0.7-0.4-1.4-1-1.9
	c-1-0.9-2.4-1.1-3.7-0.7c-0.5-0.6-1.2-1-2.1-1c-0.9,0-1.8,0.5-2.2,1.2c1,0,1.8,0.5,2.3,1.3c-1.4,1.7-1.4,4.1,0,5.5
	c0.9,0.9,2.3,1.1,3.5,0.7c0.1,0,0.2,0,0.3,0c0.5,0,0.8,0.4,0.8,0.8c0,0.5-0.4,0.8-0.8,0.8c-0.2,0-0.4-0.1-0.5-0.2
	c-0.3-0.3-0.7-0.4-1.2-0.4c-1,0-1.8,0.8-1.8,1.8c0,0.1,0,0.2,0,0.2c-0.2,0.1-0.4,0.1-0.5,0.1c-0.5,0-0.9-0.2-1.3-0.5
	c-0.1,0.2-0.1,0.4-0.1,0.6c0,1.3,1,2.3,2.3,2.4c0.6,1.4,1.9,2.4,3.6,2.4c0.8,0,1.6-0.3,2.2-0.7c0.3-0.2,0.6-0.3,1-0.3
	c0.9,0,1.7,0.8,1.7,1.7c0,0.8-0.6,1.5-1.3,1.6l-1.3,0.3c-0.2,0.1-0.4,0-0.6,0c-0.2-0.1-0.4-0.2-0.5-0.3l3,2.8
	c0.2,0.2,0.4,0.3,0.5,0.3c0.2,0.1,0.4,0.1,0.6,0l2.4-0.5c0.2-0.1,0.4,0,0.6,0c0.2,0.1,0.4,0.2,0.5,0.3l2.1,2
	c-0.2-0.2-0.3-0.3-0.5-0.3c-0.2-0.1-0.4-0.1-0.6,0l-2.4,0.5c-0.2,0-0.4,0-0.6,0c-0.2-0.1-0.4-0.2-0.5-0.3l2.7,2.6
	c0.2,0.1,0.3,0.3,0.5,0.3c0.2,0.1,0.4,0.1,0.6,0l2.5-0.5c0.2-0.1,0.4-0.1,0.6,0c0.2,0.1,0.4,0.2,0.5,0.3l2,2
	c-0.2-0.1-0.3-0.3-0.5-0.3c-0.2-0.1-0.4-0.1-0.6,0l-2.4,0.5c-0.2,0-0.4,0-0.6,0c-0.2-0.1-0.4-0.2-0.5-0.3l2.7,2.6
	c0.2,0.2,0.3,0.3,0.5,0.3c0.2,0.1,0.4,0.1,0.6,0l3-0.6c-2.9,1.6-5.9,3.5-9.2,5.5c-1.9,1.2-4,1.4-6.4,0.5c-1.3-0.5-2.7-0.6-3.6-0.4
	c-1.2,0.2-2.1,0.9-2.7,1.9c0.5-0.2,0.9-0.3,1.5-0.3c1.1,0,2,0.4,2.8,1.1c-1.1-0.5-2.5-0.5-3.9,0c-2.4,0.9-3.8,3.2-3.3,5.2
	c-0.9,0.3-1.5,1.2-1.5,2.3c0,0.7,0.3,1.3,0.7,1.7c0.2-1.1,1.2-1.9,2.3-1.9c0.5,0.3,1,0.5,1.6,0.6c0.2-0.3,0.4-0.6,0.7-0.8
	c0-0.2,0-0.4,0-0.6c0-2.2,1.8-4,4-4c0.2,0,0.4,0,0.5,0c-1.8,0.4-3.1,2-3.1,3.9c0,0.2,0,0.5,0.1,0.7c-1,0.4-1.6,1.3-1.6,2.4
	c0,0.6,0.2,1.2,0.6,1.6c0.7-1.3,2-2.3,3.6-2.4c0.6,0.2,1.2,0.3,1.8,0.3c0.4,0,0.8,0,1.2-0.1c-0.3-0.5-0.5-1.1-0.5-1.8
	c0-1.7,1.4-3.1,3.1-3.1c0.2,0,0.3,0,0.4,0c-1.6,0.7-2.7,2.1-2.3,3.4c0.2,0.9,1.1,1.6,2.2,1.8c0,0.7-0.2,1.3-0.5,1.9
	c1.4-0.1,2.7-1,3.3-2.2c1.7-0.7,2.7-2.2,2.4-3.5c-0.1-0.5-0.4-0.9-0.8-1.2c0-0.1,0-0.1,0-0.1c0-0.9,0.7-1.7,1.6-1.7
	c0.9,0,1.7,0.7,1.7,1.7c0,0.4-0.2,0.8-0.4,1.1h3.4c0.2,0,0.4-0.1,0.6-0.2c0.2-0.1,0.3-0.2,0.5-0.4l2.2-3.3c0.1-0.1,0.2-0.2,0.3-0.3
	c0.1-0.1,0.3-0.1,0.4-0.1h2.7c-0.2,0-0.3,0-0.4,0.1c-0.1,0.1-0.2,0.2-0.3,0.3l-2.2,3.3c-0.1,0.2-0.3,0.3-0.5,0.4
	c-0.2,0.1-0.4,0.2-0.6,0.2h4.1c0.2,0,0.4-0.1,0.6-0.2c0.2-0.1,0.3-0.2,0.5-0.4l2.5-3.7c-1.7-0.9-2.4-2.6-2.4-4.9c0-1.4,0.8-3,0.9-4
	l0.1-0.4c0-0.2,0-0.4-0.1-0.6c-0.1-0.2-0.2-0.4-0.3-0.5l2.1,2.2c0.2,0.1,0.3,0.3,0.4,0.5c0.1,0.2,0.1,0.4,0.1,0.6l-0.1,0.5
	c-0.1,0.9-1.2,2.7,0.8,4.4c0.1,0.1,0.3,0.3,0.6,0.4l1.4,0.9v-5.3h2v5.9c0,0.2,0.1,0.4,0.2,0.6c0.1,0.2,0.2,0.3,0.4,0.5l2,1.2
	c0.2,0.1,0.4,0.2,0.6,0.2c0.2,0,0.4,0,0.6-0.1l3.6-1.6c-0.2,0.1-0.4,0.1-0.6,0.1c-0.2,0-0.4-0.1-0.6-0.2l-4.2-2.6
	c2-1.7,0.9-3.6,0.8-4.4l-0.1-0.5c0-0.2,0-0.4,0.1-0.6c0.1-0.2,0.2-0.4,0.4-0.5l2.1-2.2c-0.1,0.2-0.2,0.4-0.3,0.5
	c-0.1,0.2-0.1,0.4-0.1,0.6l0,0.4c0.2,1.5,1.7,4.2,0.4,5.6l3.8,2.4c0.2,0.1,0.4,0.2,0.6,0.2c0.2,0,0.4,0,0.6-0.1l3.8-1.6
	c-0.2,0.1-0.4,0.1-0.6,0.1c-0.2,0-0.4-0.1-0.6-0.2l-4.1-2.6c0.9-1.8,0.1-4.8-0.7-6.4l-0.1-0.3c-0.1-0.2-0.1-0.4-0.1-0.6
	c0-0.2,0.1-0.4,0.2-0.6l1.4-2.6c-0.1,0.2-0.2,0.4-0.2,0.6c0,0.2,0,0.4,0.1,0.6l0.5,1c0.3,0.5,0.4,0.8,0.7,1.4
	c2.3-2.1,2.8-4.1,1.4-5.8l-0.4-0.5c-0.1-0.2-0.2-0.4-0.3-0.6c-0.1-0.2-0.1-0.4,0-0.6l0.8-2.8c-0.1,0.2-0.1,0.4,0,0.6
	c0.1,0.2,0.1,0.4,0.3,0.6l1.4,1.7c2.8,3.2,1.1,7.3-2.2,10.4c0.2,0.6,0.4,1.7,0.2,2.3l4.5,2.8c0.2,0.1,0.4,0.2,0.6,0.2
	c0.2,0,0.4,0,0.6-0.1l3.2-1.4c-0.2,0.1-0.4,0.1-0.6,0.1c-0.8,0-1.5-0.7-1.5-1.5c0-0.7,0.4-1.3,1-1.4c12.3-3.7,23.6-13.4,31-13.4
	c3.6,0,6.5,2.2,6.5,4.9c0,0.4-0.1,0.9-0.2,1.3c-1.6,4.5,0.7,8.7,6.8,10.4c1,0.3,1.7,1.2,1.7,2.2c0,0.2,0,0.4-0.1,0.6
	c0.1,0,0.3,0,0.4,0c1.7,0,3.2-0.8,4.1-2.1c1,0,2.2-0.1,3.3-0.2c0.1,0.3,0.3,0.6,0.3,1c0.3,1.3-0.2,2.4-1,2.7
	c-1.4,0.5-3.1-0.1-4.4-0.1c-2.5,0-4.5,2.1-4.5,4.6c0,0.2,0,0.4,0,0.6c-0.8,0.5-1.3,1.4-1.3,2.4c0,0.5,0.1,1,0.4,1.4
	c0.8-0.9,1.8-1.6,2.9-2c0.1-2.2,1.9-4,4.1-4c0.3,0,0.7,0,1,0.1c-2.2,0.3-4,2.2-4,4.5c0,0.2,0,0.3,0,0.5c-0.3,0.3-0.4,0.8-0.4,1.2
	c0,0.6,0.3,1.1,0.7,1.5c0.4-0.9,1.5-1.8,2.8-2.3c0.9-0.3,1.8-0.4,2.5-0.2c-0.1-0.3-0.2-0.7-0.2-1.1c0-2,1.6-3.6,3.6-3.6
	c0.2,0,0.4,0,0.5,0c-1.4,0.2-2.4,1.4-2.4,2.8c0,1,0.5,1.8,1.2,2.3c0,0.1,0,0.1,0,0.2c0,0.8,0.4,1.5,0.9,1.9c0.3-1.3,1.4-2.3,2.8-2.3
	c1.2,0,2.1-0.2,2.9-0.4c1.2-0.4,2.1-1.6,2.1-2.9c0-0.9-0.4-1.8-1.1-2.3c0.3-1.5,0.3-4-0.3-6.1c0.1,0,0.2,0,0.3,0
	C145.8,279.3,146.5,279.8,147,280.5L147,280.5z M84.4,306.4c-0.1-0.3-0.1-0.7,0-1c0.1-0.7,0.7-1.2,1.4-1.2c0.8,0,1.4,0.6,1.4,1.5
	c0,0.4-0.2,0.7-0.4,1c0.3,0,0.6,0,0.9,0c0.7,0,1.5-0.1,2.1-0.3c1-0.3,1.8-1.2,1.8-2.3c0-1.3-1.1-2.4-2.4-2.4c-0.1,0-0.1,0-0.2,0
	c0.3-0.1,0.7-0.2,1.1-0.2c1.5,0,2.8,1.2,2.8,2.8c0,0.1,0,0.2,0,0.2c4.2-0.1,8.8-3.9,9.9-5.3c-1.3,0.3-2.7,0.5-4.2,0.5
	c-1.7,0-3.3-0.2-4.7-0.6c-2-0.5-4-0.8-5.6-0.8c-5.1,0-9.2,3.3-9.2,7.4c0,3.4,2.8,6.4,6.7,7.2c8.8,1.8,19.2-3.4,28-5.3
	c2.2-2.1,4.7-3.9,7.5-5.3c-0.1-0.3-0.1-0.7-0.1-1v0c-11.6,1.9-22.1,7.9-31.6,7.9C86.8,309.1,84.7,308.1,84.4,306.4L84.4,306.4z
	 M84.1,284.9c0.2,0,0.4,0,0.5,0c-1.7,0.5-3.2,1.8-3.8,3.5c-1.1,0.4-1.9,1.4-1.9,2.6c0,0.6,0.2,1.1,0.5,1.5c0.9-1.1,2.2-1.8,3.6-2.2
	c0.4-2,2.1-3.6,4.2-3.8c-1.8,0.8-3.1,2.6-3.1,4.7c0,0.7,0.2,1.4,0.4,2.1c0.3-1.2,1.4-2,2.6-2c0.3,0,0.6,0.1,0.9,0.2
	c0.4,0.2,0.8,0.2,1.2,0.2c2,0,3.6-1.6,3.6-3.7c0-0.4-0.1-0.8-0.2-1.2c1,0.3,1.7,1.2,1.7,2.2c0,0.5-0.1,0.9-0.4,1.3
	c0.3,0.1,0.5,0.1,0.8,0.1c2.4,0,4.3-1.8,4.6-4.1c1.2-0.6,2.2-1.5,3.1-2.6l0.6,3.1c0.1,0.2,0,0.4,0,0.6c0,0.2-0.2,0.4-0.3,0.5
	l2.6-2.7c0.2-0.2,0.3-0.3,0.3-0.5c0.1-0.2,0.1-0.4,0-0.6l-0.8-3.8c0-0.2,0-0.4,0-0.6s0.2-0.4,0.3-0.5l2.1-2.1
	c-0.2,0.2-0.3,0.4-0.3,0.5c-0.1,0.2-0.1,0.4,0,0.6l0.8,3.8c0.1,0.2,0,0.4,0,0.6c-0.1,0.2-0.2,0.4-0.3,0.5l2.3-2.4
	c0.2-0.2,0.3-0.3,0.3-0.5c0.1-0.2,0.1-0.4,0-0.6l-0.8-3.8c-0.1-0.2,0-0.4,0-0.6c0.1-0.2,0.2-0.4,0.3-0.5l2.1-2.1
	c-0.2,0.2-0.3,0.3-0.3,0.5c-0.1,0.2-0.1,0.4,0,0.6l0.8,3.8c0.1,0.2,0,0.4,0,0.6c-0.1,0.2-0.2,0.4-0.3,0.5l2.3-2.4
	c0.2-0.2,0.2-0.3,0.3-0.5c0.1-0.2,0.1-0.4,0-0.6l-0.4-1.8c-0.4-2.1,1.8-4.5,3.5-4.7c0.2-0.4,0.3-0.8,0.3-1.3c0-2.1-2.5-3.8-5.6-3.8
	c-1.5,0-2.9,0.4-3.9,1.1c0.4,1.2,0.5,2.4-3.5,3c-3.2,0.4-6,1.1-8.1,2.9c-3.3,2.8-3,6.5-4.8,7.9c0.8,0.2,1.9,0.2,3,0
	c0.7-0.2,1.4-0.4,1.9-0.7c-0.3,0.7-1.1,1.3-2.2,1.7c-0.3,1.3-1.5,2.5-3.1,3.1c-1,0.4-2,0.4-2.8,0.2l-3.8-1.1c-0.5-0.1-1-0.2-1.5-0.2
	c-2.8,0-5.1,2.2-5.5,5c-1.3,0.2-2.3,1.3-2.3,2.7c0,0.5,0.1,1,0.4,1.4c0.9-0.9,2.1-1.6,3.4-2C80.2,286.3,82,284.9,84.1,284.9
	L84.1,284.9z M63.8,319.7c0.2-1.2,0.3-2.5,0.3-3.6l-1.1,1.3c-0.2-0.5-0.4-0.8-0.5-1.1c-0.1-0.2-0.2-0.4-0.4-0.4
	c-0.1,0.1-0.2,0.1-0.3,0.1c-0.1,0-0.3,0-0.5,0c-0.1,0-0.3,0-0.5,0c-0.1,0-0.2-0.1-0.3-0.1c-0.2,0-0.2,0.2-0.4,0.4
	c-0.1,0.3-0.3,0.6-0.5,1.1l-1.1-1.3c0,1.2,0.1,2.4,0.3,3.6c0.8-0.2,1.7-0.2,2.5-0.2C62.2,319.4,63,319.5,63.8,319.7L63.8,319.7z
	 M64.3,323c0.1-1.4-1.5-1.9-3-1.9s-3.1,0.5-3,1.9c0.2,1.7,1.8,0.9,3,0.9C62.6,324,64.2,324.8,64.3,323L64.3,323z M68.6,312.9
	c-0.3,0.1-0.5,0.2-0.5,0.6c-0.2,1.7-0.9,2.3-1.9,2.7c0,1.7-0.3,3-0.7,4.5c1.3,2.7,0.3,4.5-0.7,4.9c-1,0.4-2.3-0.1-3.4-0.1
	c-1.1,0-2.4,0.5-3.4,0.1c-1-0.4-2-2.3-0.7-4.9c-0.4-1.6-0.7-2.8-0.7-4.5c-1.1-0.4-1.8-1.1-1.9-2.7c0-0.3-0.2-0.5-0.5-0.6
	c-4.3-1.2-4.6-6.5-2.5-8c-0.2,2.4-0.4,5.7,4.4,6.1c-0.1,2.8,1.1,3.5,2.4,3.5c1,0,1.6-0.3,1.8-0.5c0.9-0.5,0.3-1.2,0.1-1.4
	c-0.6-0.6-0.9-1.4-0.8-2.2c0-0.2,0.1-0.2,0.2-0.2h1.6H63c0.1,0,0.2,0.1,0.2,0.2c0.1,0.8-0.2,1.6-0.8,2.2c-0.2,0.2-0.9,1,0,1.4
	c0.3,0.1,0.8,0.5,1.9,0.5c1.2,0,2.4-0.8,2.3-3.5c4.8-0.4,4.6-3.8,4.4-6.1C73.2,306.4,72.8,311.7,68.6,312.9L68.6,312.9z M69.9,303.6
	c0,1.2-0.9,2.6-1.9,2.6h-0.9c0.2,0.3,0.4,0.6,0.4,1c0,0.9-0.7,1.6-1.6,1.6c-0.9,0-1.6-0.7-1.6-1.6c0-0.4,0.1-0.8,0.4-1h-1
	c-0.3,0-0.6,0.1-0.8,0.5c-0.1-0.5-0.1-1.1,0-1.4c0.2-0.5,0.5-0.8,0.9-0.8H68C68.8,304.5,69.4,304.3,69.9,303.6L69.9,303.6z
	 M69.3,301.6h-1.5c-0.7,0-1.2-0.3-1.7-0.8l-1.7-2.2c-0.3-0.3-0.5-0.6-0.9-0.8h1.7c0.5,0,1,0.2,1.3,0.7l1.8,2.3
	C68.8,301.2,68.9,301.6,69.3,301.6L69.3,301.6z M61.6,298l2.2,3.1c0.3,0.5,0.7,0.8,1.1,1h-2c-0.8,0-1.2-0.4-1.5-0.9l-1.7-2.6
	c-0.6-1-0.9-1.2-1.7-1.5h1.8C60.6,297,61.2,297.4,61.6,298L61.6,298z M56.7,298.5l1.8,2.3c0.4,0.5,0.5,0.8,1,0.9h-1.5
	c-0.7,0-1.3-0.3-1.7-0.8l-1.7-2.2c-0.3-0.3-0.5-0.6-0.9-0.8h1.7C55.9,297.8,56.3,298.1,56.7,298.5L56.7,298.5z M55.6,306.2h-0.9
	c-1,0-1.9-1.3-1.9-2.6c0.6,0.6,1.1,0.9,1.9,0.9H59c0.4,0,0.8,0.3,0.9,0.8c0.1,0.4,0.1,0.9,0,1.4c-0.2-0.4-0.5-0.5-0.8-0.5h-1
	c0.2,0.3,0.4,0.6,0.4,1c0,0.9-0.7,1.6-1.6,1.6c-0.9,0-1.6-0.7-1.6-1.6C55.2,306.8,55.4,306.5,55.6,306.2L55.6,306.2z M50.4,326.5
	l0.5-1c0.1-0.2,0.2-0.4,0.2-0.6c0-0.2-0.1-0.4-0.2-0.6l1.4,2.5c0.1,0.2,0.2,0.4,0.2,0.6c0,0.2,0,0.4-0.1,0.6l-0.1,0.3
	c-0.9,1.7-1.7,4.8-0.8,6.7c-2.1-0.8-2.8-2.6-2.6-4.2c-3.9-3.7-4.9-7.5-2.1-10.7l1.4-1.7c0.2-0.2,0.2-0.4,0.3-0.6
	c0.1-0.2,0.1-0.4,0-0.6l0.8,2.8c0.1,0.2,0.1,0.4,0,0.6c0,0.2-0.1,0.4-0.3,0.6l-0.4,0.5c-1.5,1.7-1.1,4,1.2,6.1
	C49.9,327.3,50.1,327,50.4,326.5L50.4,326.5z M147,337.1c0.2-0.4,0.2-0.8,0.2-1.2c0-1.8-1.4-3.2-3.2-3.2h-3.2
	c-0.2,0-0.4-0.1-0.6-0.1c-0.2-0.1-0.3-0.2-0.5-0.4l-1.6-2.4c0.1,0.2,0.3,0.3,0.5,0.4c0.2,0.1,0.4,0.2,0.6,0.1l4.3,0
	c0.2,0,0.4,0.1,0.6,0.2c0.2,0.1,0.3,0.2,0.5,0.4l-2-2.9c-0.1-0.2-0.3-0.3-0.5-0.4c-0.2-0.1-0.4-0.2-0.6-0.2l-4.2,0
	c-0.2,0-0.4-0.1-0.6-0.2c-0.2-0.1-0.4-0.2-0.5-0.4l-1.8-2.7c0.1,0.2,0.3,0.3,0.5,0.4c0.2,0.1,0.4,0.2,0.6,0.2h4.2
	c0.2,0,0.4,0,0.6,0.1c0.2,0.1,0.3,0.2,0.5,0.4l-2-2.9c-0.1-0.2-0.3-0.3-0.5-0.4c-0.2-0.1-0.4-0.2-0.6-0.2h-3.4
	c-0.2,0-0.4-0.1-0.6-0.2c-0.2-0.1-0.3-0.2-0.5-0.4l-2.3-3.3c4.6-0.5,8.3-3,9-6.5c1-4.4-3.4-8.7-9.8-9.7c-1.1-0.2-1.9-1.1-1.9-2.2
	c0-1,0.6-1.8,1.4-2.1c-0.7-0.3-1.4-0.5-2.2-0.5c-2.8,0-5.1,2-5.1,4.5c0,0.4,0.1,0.9,0.2,1.3c-3.2,1.4-6,3.8-8.2,6.4
	c2.4-0.6,4.8-1,7.4-1c0-0.1,0-0.2,0-0.4c0-1.9,1.5-3.5,3.5-3.5h0.1c-1.3,0.6-1.9,1.8-1.9,2.7c0,1,0.8,1.8,1.8,1.8
	c0.4,0,0.7-0.1,1-0.3c-0.1-0.2-0.1-0.5-0.1-0.7c0-1.4,1.1-2.5,2.5-2.5c0.1,0,0.2,0,0.4,0c-0.9,0.4-1.6,1.4-1.6,2.5
	c0,1.5,1.2,2.8,2.8,2.8c0.2,0,0.3,0,0.5,0c-0.1-0.2-0.1-0.3-0.1-0.5c0-1.1,0.9-2,2-2c1.1,0,2,0.9,2,2c0,2.4-2.7,2.6-4.6,2.1
	c-5.5-1.6-10.7-2.3-15.7-1.6c-6.4,0.9-16.9,5.2-28,4.9c-2.5-0.1-5.2-0.5-7.9-1.2c0.3,0.4,0.6,0.6,0.7,0.8c1.1,1.7,1.5,3.5,0.5,5.7
	c0-2.5-2-4.5-3.7-5.8c-0.7-0.5-1-1-0.9-1.6l0.5-2.9c0,0.2,0,0.4,0,0.6c0.1,0.2,0.2,0.4,0.3,0.5l1.1,1.1c0.4-2.9-0.2-5.6-2-8.1
	c0.8-2,0.9-4.2,0.4-6.3c-0.2,1.6-1,2.3-1.7,2.7c-1.4,0.9-1.6,2.3-0.9,3.2c-1.1-0.6-2.7-2.7-1.8-3.9c1-1.3,3.7-0.7,4-3
	c-1.8-0.6-3.6-0.2-4.1,0c-1-1.2-2.4-1.8-4.1-1.8c-1.4-1.2-3.1-1.7-5.2-1.5c-2.1-0.2-3.9,0.3-5.2,1.5c-1.7,0-3.1,0.6-4.1,1.8
	c-0.5-0.2-2.3-0.5-4.1,0c0.3,2.3,3,1.7,4,3c0.9,1.2-0.6,3.4-1.8,3.9c0.7-1,0.5-2.4-0.9-3.2c-0.7-0.4-1.5-1.1-1.7-2.7
	c-0.5,2.1-0.4,4.3,0.4,6.3c-1.7,2.5-2.4,5.2-2,8.1l1.1-1.1c0.2-0.2,0.3-0.3,0.3-0.5c0.1-0.2,0.1-0.4,0-0.6l0.5,2.9
	c0.1,0.6-0.2,1.1-0.9,1.6c-1.7,1.3-3.8,3.3-3.7,5.8c-1-2.2-0.6-4.1,0.5-5.7c-3.3-1.8-5.7-4.7-6.2-5.2c-1-1.1-0.9-2.6,0.1-3.9
	c1.7-2.5,2.1-5.1,0-6.9c0-0.1,0-0.3,0-0.4c0-1.6-1.2-3-2.7-3.3c0.3,0.4,0.5,1,0.5,1.6c0,0.7-0.2,1.3-0.6,1.7
	c0.3,0.4,0.5,0.9,0.5,1.5c0,0.7-0.3,1.4-0.8,1.8c0.1-0.3,0.1-0.5,0.1-0.8c0-1.7-1-3.1-2.4-3.5c-0.2-1.2-1.3-2.2-2.6-2.2
	c-0.7,0-1.4,0.3-1.9,0.8c1,0.1,1.8,0.9,1.9,1.9c-0.5,0.4-0.9,0.9-1.1,1.4h0.1c1.7,0,3.1,1.4,3.1,3.1c0,0.2,0,0.4-0.1,0.6
	c-0.1-0.7-0.4-1.4-1-1.9c-1-0.9-2.4-1.1-3.7-0.6c-0.5-0.6-1.2-1-2.1-1c-0.9,0-1.8,0.5-2.2,1.2c1,0,1.8,0.5,2.3,1.2
	c-1.4,1.7-1.4,4.1,0,5.5c0.9,0.9,2.3,1.1,3.5,0.7c0.1,0,0.2-0.1,0.3-0.1c0.5,0,0.8,0.4,0.8,0.8c0,0.5-0.4,0.8-0.8,0.8
	c-0.2,0-0.4-0.1-0.5-0.2c-0.3-0.3-0.7-0.4-1.2-0.4c-1,0-1.8,0.8-1.8,1.8c0,0.1,0,0.2,0,0.2c-0.2,0.1-0.4,0.1-0.5,0.1
	c-0.5,0-0.9-0.2-1.3-0.5c-0.1,0.2-0.1,0.4-0.1,0.6c0,1.3,1,2.4,2.3,2.4c0.6,1.4,1.9,2.4,3.6,2.4c0.8,0,1.6-0.3,2.2-0.7
	c0.3-0.2,0.6-0.3,1-0.3c0.9,0,1.7,0.8,1.7,1.7c0,0.8-0.6,1.5-1.3,1.7l-1.3,0.3c-0.2,0.1-0.4,0-0.6,0c-0.2-0.1-0.4-0.2-0.5-0.3l3,2.8
	c0.2,0.2,0.4,0.3,0.5,0.3c0.2,0.1,0.4,0.1,0.6,0l2.4-0.5c0.2-0.1,0.4,0,0.6,0c0.2,0.1,0.4,0.2,0.5,0.3l2.1,2
	c-0.2-0.2-0.3-0.3-0.5-0.3c-0.2-0.1-0.4-0.1-0.6,0l-2.4,0.5c-0.2,0-0.4,0-0.6,0c-0.2-0.1-0.4-0.2-0.5-0.3l2.7,2.6
	c0.2,0.2,0.3,0.3,0.5,0.3c0.2,0.1,0.4,0.1,0.6,0l2.5-0.5c0.2-0.1,0.4,0,0.6,0c0.2,0.1,0.4,0.2,0.5,0.3l2,2c-0.2-0.1-0.3-0.3-0.5-0.3
	c-0.2-0.1-0.4-0.1-0.6,0l-2.4,0.5c-0.2,0.1-0.4,0-0.6,0c-0.2-0.1-0.4-0.2-0.5-0.3l2.7,2.6c0.2,0.2,0.3,0.3,0.5,0.3
	c0.2,0.1,0.4,0.1,0.6,0l3-0.7c-2.9,1.6-5.9,3.5-9.2,5.5c-1.9,1.2-4,1.4-6.4,0.5c-1.3-0.5-2.7-0.6-3.6-0.4c-1.2,0.2-2.1,0.9-2.7,1.9
	c0.5-0.2,0.9-0.3,1.5-0.3c1.1,0,2,0.4,2.8,1.1c-1.1-0.5-2.5-0.5-3.9,0c-2.4,0.9-3.8,3.2-3.3,5.2c-0.9,0.3-1.5,1.2-1.5,2.3
	c0,0.7,0.3,1.3,0.7,1.7c0.2-1.1,1.2-1.9,2.3-1.9c0.5,0.3,1,0.5,1.6,0.7c0.2-0.3,0.4-0.6,0.7-0.8c0-0.2,0-0.4,0-0.6c0-2.2,1.8-4,4-4
	c0.2,0,0.4,0,0.5,0c-1.8,0.4-3.1,2-3.1,3.9c0,0.2,0,0.5,0.1,0.7c-1,0.4-1.6,1.3-1.6,2.4c0,0.6,0.2,1.2,0.6,1.6
	c0.7-1.3,2-2.3,3.6-2.4c0.6,0.2,1.2,0.3,1.8,0.3c0.4,0,0.8,0,1.2-0.1c-0.3-0.5-0.5-1.1-0.5-1.7c0-1.7,1.4-3.1,3.1-3.1
	c0.2,0,0.3,0,0.4,0c-1.6,0.7-2.7,2.1-2.3,3.4c0.2,0.9,1.1,1.6,2.2,1.8c0,0.7-0.2,1.3-0.5,1.9c1.4-0.1,2.7-1,3.3-2.2
	c1.7-0.7,2.7-2.1,2.4-3.5c-0.1-0.5-0.4-0.9-0.8-1.2c0-0.1,0-0.1,0-0.1c0-0.9,0.7-1.7,1.6-1.7c0.9,0,1.7,0.7,1.7,1.7
	c0,0.4-0.2,0.8-0.4,1.1h3.4c0.2,0,0.4-0.1,0.6-0.2c0.2-0.1,0.3-0.2,0.5-0.4l2.2-3.3c0.1-0.1,0.2-0.2,0.3-0.3
	c0.1-0.1,0.3-0.1,0.4-0.1h2.7c-0.2,0-0.3,0-0.4,0.1c-0.1,0.1-0.2,0.1-0.3,0.3l-2.2,3.3c-0.1,0.2-0.3,0.3-0.5,0.4
	c-0.2,0.1-0.4,0.2-0.6,0.2h4.1c0.2,0,0.4-0.1,0.6-0.2c0.2-0.1,0.3-0.2,0.5-0.4l2.5-3.7c-1.7-0.9-2.4-2.6-2.4-4.8c0-1.4,0.8-3,0.9-4
	l0.1-0.4c0-0.2,0-0.4-0.1-0.6c-0.1-0.2-0.2-0.4-0.3-0.5l2.1,2.2c0.2,0.2,0.3,0.3,0.4,0.5c0.1,0.2,0.1,0.4,0.1,0.6l-0.1,0.5
	c-0.1,0.9-1.2,2.7,0.8,4.4c0.1,0.1,0.3,0.3,0.6,0.4l1.4,0.9v-5.3h2v5.9c0,0.2,0.1,0.4,0.2,0.6c0.1,0.2,0.2,0.3,0.4,0.5l2,1.2
	c0.2,0.1,0.4,0.2,0.6,0.2c0.2,0,0.4,0,0.6-0.1l3.6-1.6c-0.2,0.1-0.4,0.1-0.6,0.1c-0.2,0-0.4-0.1-0.6-0.2l-4.2-2.7
	c2-1.7,0.9-3.6,0.8-4.4l-0.1-0.5c0-0.2,0-0.4,0.1-0.6c0.1-0.2,0.2-0.4,0.4-0.5l2.1-2.2c-0.1,0.2-0.2,0.4-0.3,0.5
	c-0.1,0.2-0.1,0.4-0.1,0.6l0,0.4c0.2,1.5,1.7,4.1,0.4,5.6l3.8,2.4c0.2,0.1,0.4,0.2,0.6,0.2c0.2,0,0.4,0,0.6-0.1l3.8-1.6
	c-0.2,0.1-0.4,0.1-0.6,0.1c-0.2,0-0.4-0.1-0.6-0.2l-4.1-2.6c0.9-1.8,0.1-4.8-0.7-6.4l-0.1-0.3c-0.1-0.2-0.1-0.4-0.1-0.6
	c0-0.2,0.1-0.4,0.2-0.6l1.4-2.5c-0.1,0.2-0.2,0.4-0.2,0.6c0,0.2,0,0.4,0.1,0.6l0.5,1c0.3,0.5,0.4,0.8,0.7,1.4
	c2.3-2.1,2.8-4.1,1.4-5.8l-0.4-0.5c-0.1-0.2-0.2-0.3-0.3-0.5c-0.1-0.2-0.1-0.4,0-0.6l0.8-2.8c-0.1,0.2-0.1,0.4,0,0.6
	c0.1,0.2,0.1,0.4,0.3,0.6l1.4,1.7c2.8,3.2,1.1,7.3-2.2,10.4c0.2,0.6,0.4,1.7,0.2,2.3l4.5,2.8c0.2,0.1,0.4,0.2,0.6,0.2
	c0.2,0,0.4,0,0.6-0.1l3.2-1.4c-0.2,0.1-0.4,0.1-0.6,0.1c-0.8,0-1.5-0.7-1.5-1.5c0-0.7,0.4-1.3,1-1.4c12.3-3.7,23.6-13.4,31-13.4
	c3.6,0,6.5,2.2,6.5,4.9c0,0.4-0.1,0.9-0.2,1.3c-1.6,4.5,0.7,8.7,6.8,10.3c1,0.3,1.7,1.2,1.7,2.2c0,0.2,0,0.4-0.1,0.6
	c0.1,0,0.3,0,0.4,0c1.7,0,3.2-0.8,4.1-2.1c1,0,2.2-0.1,3.3-0.2c0.1,0.3,0.3,0.6,0.3,1c0.3,1.3-0.2,2.4-1,2.7
	c-1.4,0.5-3.1-0.1-4.4-0.1c-2.5,0-4.5,2.1-4.5,4.6c0,0.2,0,0.4,0,0.6c-0.8,0.5-1.3,1.3-1.3,2.4c0,0.5,0.1,1,0.4,1.4
	c0.8-0.9,1.8-1.6,2.9-2c0.1-2.2,1.9-4,4.1-4c0.3,0,0.7,0,1,0.1c-2.2,0.3-4,2.2-4,4.5c0,0.2,0,0.3,0,0.5c-0.3,0.3-0.4,0.8-0.4,1.2
	c0,0.6,0.3,1.1,0.7,1.5c0.4-0.9,1.5-1.8,2.8-2.3c0.9-0.3,1.8-0.4,2.5-0.2c-0.1-0.4-0.2-0.7-0.2-1.1c0-2,1.6-3.6,3.6-3.6
	c0.2,0,0.4,0,0.5,0c-1.4,0.2-2.4,1.4-2.4,2.8c0,1,0.5,1.8,1.2,2.3c0,0.1,0,0.1,0,0.2c0,0.8,0.4,1.5,0.9,1.9c0.3-1.3,1.4-2.3,2.8-2.3
	c1.2,0,2.1-0.2,2.9-0.4c1.2-0.4,2.1-1.5,2.1-2.9c0-0.9-0.4-1.8-1.1-2.3c0.3-1.5,0.3-4-0.3-6.1c0.1,0,0.2,0,0.3,0
	C145.8,336,146.5,336.4,147,337.1L147,337.1z M84.4,363c-0.1-0.3-0.1-0.7,0-1c0.1-0.7,0.7-1.2,1.4-1.2c0.8,0,1.4,0.7,1.4,1.5
	c0,0.4-0.2,0.7-0.4,1c0.3,0,0.6,0,0.9,0c0.7,0,1.5-0.1,2.1-0.3c1-0.3,1.8-1.2,1.8-2.3c0-1.3-1.1-2.4-2.4-2.4h-0.2
	c0.3-0.1,0.7-0.2,1.1-0.2c1.5,0,2.8,1.3,2.8,2.8c0,0.1,0,0.2,0,0.2c4.2-0.1,8.8-3.9,9.9-5.3c-1.3,0.3-2.7,0.5-4.2,0.5
	c-1.7,0-3.3-0.2-4.7-0.6c-2-0.5-4-0.9-5.6-0.9c-5.1,0-9.2,3.3-9.2,7.4c0,3.4,2.8,6.4,6.7,7.2c8.8,1.8,19.2-3.5,28-5.3
	c2.2-2.1,4.7-3.9,7.5-5.3c-0.1-0.3-0.1-0.6-0.1-1v0c-11.6,1.9-22.1,7.9-31.6,7.9C86.8,365.7,84.7,364.7,84.4,363L84.4,363z
	 M84.1,341.5c0.2,0,0.4,0,0.5,0c-1.7,0.5-3.2,1.8-3.8,3.5c-1.1,0.4-1.9,1.4-1.9,2.6c0,0.6,0.2,1.1,0.5,1.5c0.9-1.1,2.2-1.8,3.6-2.2
	c0.4-2,2.1-3.6,4.2-3.8c-1.8,0.8-3.1,2.6-3.1,4.6c0,0.8,0.2,1.5,0.4,2.1c0.3-1.2,1.4-2,2.6-2c0.3,0,0.6,0.1,0.9,0.2
	c0.4,0.1,0.8,0.2,1.2,0.2c2,0,3.6-1.6,3.6-3.7c0-0.4-0.1-0.8-0.2-1.2c1,0.3,1.7,1.2,1.7,2.2c0,0.5-0.1,0.9-0.4,1.3
	c0.3,0.1,0.5,0.1,0.8,0.1c2.4,0,4.3-1.8,4.6-4.1c1.2-0.6,2.2-1.5,3.1-2.6l0.6,3.1c0.1,0.2,0,0.4,0,0.6c0,0.2-0.2,0.4-0.3,0.5
	l2.6-2.7c0.2-0.1,0.3-0.3,0.3-0.5c0.1-0.2,0.1-0.4,0-0.6l-0.8-3.8c0-0.2,0-0.4,0-0.6c0.1-0.2,0.2-0.4,0.3-0.5l2.1-2.1
	c-0.2,0.2-0.3,0.3-0.3,0.5c-0.1,0.2-0.1,0.4,0,0.6l0.8,3.8c0.1,0.2,0,0.4,0,0.6c-0.1,0.2-0.2,0.4-0.3,0.5l2.3-2.4
	c0.2-0.2,0.3-0.4,0.3-0.5c0.1-0.2,0.1-0.4,0-0.6l-0.8-3.8c-0.1-0.2,0-0.4,0-0.6c0.1-0.2,0.2-0.4,0.3-0.5l2.1-2.1
	c-0.2,0.2-0.3,0.3-0.3,0.5c-0.1,0.2-0.1,0.4,0,0.6l0.8,3.8c0.1,0.2,0,0.4,0,0.6c-0.1,0.2-0.2,0.4-0.3,0.5l2.3-2.4
	c0.2-0.2,0.2-0.3,0.3-0.5c0.1-0.2,0.1-0.4,0-0.6l-0.4-1.9c-0.4-2.1,1.8-4.5,3.5-4.7c0.2-0.4,0.3-0.8,0.3-1.3c0-2.1-2.5-3.8-5.6-3.8
	c-1.5,0-2.9,0.4-3.9,1.1c0.4,1.2,0.5,2.4-3.5,3c-3.2,0.4-6,1.1-8.1,2.9c-3.3,2.8-3,6.5-4.8,7.9c0.8,0.2,1.9,0.2,3,0
	c0.7-0.1,1.4-0.4,1.9-0.7c-0.3,0.7-1.1,1.3-2.2,1.7c-0.3,1.3-1.5,2.6-3.1,3.1c-1,0.4-2,0.4-2.8,0.2l-3.8-1.1c-0.5-0.1-1-0.2-1.5-0.2
	c-2.8,0-5.1,2.2-5.5,5c-1.3,0.2-2.3,1.3-2.3,2.7c0,0.5,0.1,1,0.4,1.4c0.9-0.9,2.1-1.6,3.4-2C80.2,342.9,82,341.5,84.1,341.5
	L84.1,341.5z M63.8,376.3c0.2-1.2,0.3-2.5,0.3-3.6L63,374c-0.2-0.5-0.4-0.8-0.5-1.1c-0.1-0.2-0.2-0.4-0.4-0.4
	c-0.1,0-0.2,0.1-0.3,0.1c-0.1,0-0.3,0-0.5,0c-0.1,0-0.3,0-0.5,0c-0.1,0-0.2-0.1-0.3-0.1c-0.2,0-0.2,0.2-0.4,0.4
	c-0.1,0.3-0.3,0.6-0.5,1.1l-1.1-1.3c0,1.2,0.1,2.4,0.3,3.6c0.8-0.2,1.7-0.3,2.5-0.3C62.2,376.1,63,376.1,63.8,376.3L63.8,376.3z
	 M64.3,379.7c0.1-1.4-1.5-1.9-3-1.9s-3.1,0.5-3,1.9c0.2,1.7,1.8,0.9,3,0.9C62.6,380.6,64.2,381.4,64.3,379.7L64.3,379.7z
	 M68.6,369.5c-0.3,0.1-0.5,0.2-0.5,0.6c-0.2,1.7-0.9,2.3-1.9,2.7c0,1.7-0.3,3-0.7,4.5c1.3,2.7,0.3,4.5-0.7,4.9
	c-1,0.4-2.3-0.1-3.4-0.1c-1.1,0-2.4,0.5-3.4,0.1c-1-0.4-2-2.3-0.7-4.9c-0.4-1.6-0.7-2.8-0.7-4.5c-1.1-0.4-1.8-1-1.9-2.7
	c0-0.3-0.2-0.5-0.5-0.6c-4.3-1.2-4.6-6.5-2.5-8c-0.2,2.4-0.4,5.7,4.4,6.1c-0.1,2.8,1.1,3.5,2.4,3.5c1,0,1.6-0.3,1.8-0.5
	c0.9-0.5,0.3-1.2,0.1-1.4c-0.6-0.6-0.9-1.4-0.8-2.2c0-0.2,0.1-0.2,0.2-0.2h1.6H63c0.1,0,0.2,0.1,0.2,0.2c0.1,0.8-0.2,1.6-0.8,2.2
	c-0.2,0.2-0.9,0.9,0,1.4c0.3,0.1,0.8,0.5,1.9,0.5c1.2,0,2.4-0.7,2.3-3.5c4.8-0.4,4.6-3.8,4.4-6.1C73.2,363,72.8,368.3,68.6,369.5
	L68.6,369.5z M69.9,360.3c0,1.2-0.9,2.6-1.9,2.6h-0.9c0.2,0.3,0.4,0.6,0.4,1c0,0.9-0.7,1.6-1.6,1.6c-0.9,0-1.6-0.7-1.6-1.6
	c0-0.4,0.1-0.8,0.4-1h-1c-0.3,0-0.6,0.1-0.8,0.5c-0.1-0.5-0.1-1.1,0-1.4c0.2-0.5,0.5-0.8,0.9-0.8H68
	C68.8,361.1,69.4,360.9,69.9,360.3L69.9,360.3z M69.3,358.2h-1.5c-0.7,0-1.2-0.3-1.7-0.8l-1.7-2.2c-0.3-0.4-0.5-0.6-0.9-0.8h1.7
	c0.5,0,1,0.2,1.3,0.7l1.8,2.3C68.8,357.9,68.9,358.2,69.3,358.2L69.3,358.2z M61.6,354.6l2.2,3.1c0.3,0.5,0.7,0.8,1.1,1h-2
	c-0.8,0-1.2-0.4-1.5-0.9l-1.7-2.6c-0.6-1-0.9-1.2-1.7-1.5h1.8C60.6,353.6,61.2,354.1,61.6,354.6L61.6,354.6z M56.7,355.1l1.8,2.3
	c0.4,0.5,0.5,0.8,1,0.9h-1.5c-0.7,0-1.3-0.3-1.7-0.8l-1.7-2.2c-0.3-0.4-0.5-0.6-0.9-0.8h1.7C55.9,354.5,56.3,354.7,56.7,355.1
	L56.7,355.1z M55.6,362.8h-0.9c-1,0-1.9-1.4-1.9-2.6c0.6,0.6,1.1,0.9,1.9,0.9H59c0.4,0,0.8,0.3,0.9,0.8c0.1,0.4,0.1,0.9,0,1.4
	c-0.2-0.4-0.5-0.5-0.8-0.5h-1c0.2,0.3,0.4,0.6,0.4,1c0,0.9-0.7,1.6-1.6,1.6c-0.9,0-1.6-0.7-1.6-1.6
	C55.2,363.5,55.4,363.1,55.6,362.8L55.6,362.8z M50.4,383.1l0.5-1c0.1-0.2,0.2-0.4,0.2-0.6c0-0.2-0.1-0.4-0.2-0.6l1.4,2.6
	c0.1,0.2,0.2,0.4,0.2,0.6c0,0.2,0,0.4-0.1,0.6l-0.1,0.3c-0.9,1.7-1.7,4.8-0.8,6.7c-2.1-0.8-2.8-2.6-2.6-4.1
	c-3.9-3.8-4.9-7.5-2.1-10.7l1.4-1.7c0.2-0.2,0.2-0.4,0.3-0.6c0.1-0.2,0.1-0.4,0-0.6l0.8,2.8c0.1,0.2,0.1,0.4,0,0.6
	c0,0.2-0.1,0.4-0.3,0.6l-0.4,0.5c-1.5,1.7-1.1,4,1.2,6.1C49.9,383.9,50.1,383.6,50.4,383.1L50.4,383.1z M147,393.7
	c0.2-0.4,0.2-0.8,0.2-1.2c0-1.8-1.4-3.2-3.2-3.2h-3.2c-0.2,0-0.4-0.1-0.6-0.1c-0.2-0.1-0.3-0.2-0.5-0.4l-1.6-2.4
	c0.1,0.2,0.3,0.3,0.5,0.4c0.2,0.1,0.4,0.2,0.6,0.2h4.3c0.2,0,0.4,0.1,0.6,0.1c0.2,0.1,0.3,0.2,0.5,0.4l-2-2.9
	c-0.1-0.2-0.3-0.3-0.5-0.4c-0.2-0.1-0.4-0.1-0.6-0.1l-4.2,0c-0.2,0-0.4-0.1-0.6-0.2c-0.2-0.1-0.4-0.2-0.5-0.4l-1.8-2.7
	c0.1,0.2,0.3,0.3,0.5,0.4c0.2,0.1,0.4,0.2,0.6,0.1h4.2c0.2,0,0.4,0.1,0.6,0.2c0.2,0.1,0.3,0.2,0.5,0.4l-2-2.9
	c-0.1-0.2-0.3-0.3-0.5-0.4c-0.2-0.1-0.4-0.1-0.6-0.1h-3.4c-0.2,0-0.4-0.1-0.6-0.2c-0.2-0.1-0.3-0.2-0.5-0.4l-2.3-3.3
	c4.6-0.5,8.3-3,9-6.5c1-4.4-3.4-8.7-9.8-9.7c-1.1-0.2-1.9-1.1-1.9-2.2c0-1,0.6-1.8,1.4-2.1c-0.7-0.3-1.4-0.5-2.2-0.5
	c-2.8,0-5.1,2-5.1,4.5c0,0.4,0.1,0.9,0.2,1.3c-3.2,1.4-6,3.8-8.2,6.4c2.4-0.6,4.8-1,7.4-1c0-0.1,0-0.3,0-0.4c0-1.9,1.5-3.5,3.5-3.5
	h0.1c-1.3,0.6-1.9,1.8-1.9,2.6c0,1,0.8,1.8,1.8,1.8c0.4,0,0.7-0.1,1-0.3c-0.1-0.2-0.1-0.5-0.1-0.7c0-1.4,1.1-2.5,2.5-2.5
	c0.1,0,0.2,0,0.4,0c-0.9,0.4-1.6,1.4-1.6,2.5c0,1.5,1.2,2.8,2.8,2.8c0.2,0,0.3,0,0.5,0c-0.1-0.2-0.1-0.3-0.1-0.5c0-1.1,0.9-2,2-2
	c1.1,0,2,0.9,2,2c0,2.4-2.7,2.6-4.6,2.1c-5.5-1.6-10.7-2.3-15.7-1.6c-6.4,0.9-16.9,5.2-28,4.9c-2.5-0.1-5.2-0.5-7.9-1.2
	c0.3,0.4,0.6,0.6,0.7,0.8c1.1,1.7,1.5,3.5,0.5,5.7c0-2.5-2-4.5-3.7-5.8c-0.7-0.5-1-1-0.9-1.6l0.5-2.9c0,0.2,0,0.4,0,0.6
	c0.1,0.2,0.2,0.4,0.3,0.5l1.1,1c0.4-2.9-0.2-5.6-2-8.1c0.8-2,0.9-4.2,0.4-6.3c-0.2,1.6-1,2.2-1.7,2.7c-1.4,0.8-1.6,2.3-0.9,3.2
	c-1.1-0.6-2.7-2.7-1.8-3.9c1-1.3,3.7-0.7,4-3c-1.8-0.6-3.6-0.2-4.1,0c-1-1.2-2.4-1.8-4.1-1.8c-1.4-1.2-3.1-1.7-5.2-1.5
	c-2.1-0.2-3.9,0.3-5.2,1.5c-1.7,0-3.1,0.6-4.1,1.8c-0.5-0.2-2.3-0.5-4.1,0c0.3,2.3,3,1.7,4,3c0.9,1.2-0.6,3.4-1.8,3.9
	c0.7-0.9,0.5-2.4-0.9-3.2c-0.7-0.5-1.5-1.1-1.7-2.7c-0.5,2.1-0.4,4.3,0.4,6.3c-1.7,2.5-2.4,5.2-2,8.1l1.1-1c0.2-0.2,0.3-0.3,0.3-0.5
	c0.1-0.2,0.1-0.4,0-0.6l0.5,2.9c0.1,0.6-0.2,1.1-0.9,1.6c-1.7,1.2-3.8,3.3-3.7,5.8c-1-2.2-0.6-4.1,0.5-5.7c-3.3-1.8-5.7-4.7-6.2-5.2
	c-1-1.1-0.9-2.6,0.1-3.9c1.7-2.5,2.1-5.1,0-6.9c0-0.1,0-0.3,0-0.4c0-1.6-1.2-3-2.7-3.3c0.3,0.4,0.5,1,0.5,1.6c0,0.6-0.2,1.2-0.6,1.7
	c0.3,0.4,0.5,0.9,0.5,1.5c0,0.7-0.3,1.4-0.8,1.8c0.1-0.3,0.1-0.5,0.1-0.8c0-1.7-1-3.1-2.4-3.5c-0.2-1.2-1.3-2.2-2.6-2.2
	c-0.7,0-1.4,0.3-1.9,0.8c1,0.1,1.8,0.9,1.9,1.9c-0.5,0.4-0.9,0.9-1.1,1.4h0.1c1.7,0,3.1,1.4,3.1,3.1c0,0.2,0,0.4-0.1,0.6
	c-0.1-0.7-0.4-1.4-1-1.9c-1-1-2.4-1.1-3.7-0.7c-0.5-0.6-1.2-1-2.1-1c-0.9,0-1.8,0.5-2.2,1.2c1,0,1.8,0.5,2.3,1.2
	c-1.4,1.7-1.4,4.1,0,5.5c0.9,0.9,2.3,1.1,3.5,0.7c0.1,0,0.2,0,0.3,0c0.5,0,0.8,0.4,0.8,0.8c0,0.5-0.4,0.8-0.8,0.8
	c-0.2,0-0.4-0.1-0.5-0.2c-0.3-0.3-0.7-0.4-1.2-0.4c-1,0-1.8,0.8-1.8,1.8c0,0.1,0,0.1,0,0.2c-0.2,0.1-0.4,0.1-0.5,0.1
	c-0.5,0-0.9-0.2-1.3-0.5c-0.1,0.2-0.1,0.4-0.1,0.6c0,1.3,1,2.3,2.3,2.4c0.6,1.4,1.9,2.4,3.6,2.4c0.8,0,1.6-0.3,2.2-0.7
	c0.3-0.2,0.6-0.3,1-0.3c0.9,0,1.7,0.8,1.7,1.7c0,0.8-0.6,1.5-1.3,1.6l-1.3,0.3c-0.2,0.1-0.4,0-0.6,0c-0.2-0.1-0.4-0.2-0.5-0.3l3,2.8
	c0.2,0.2,0.4,0.2,0.5,0.3c0.2,0.1,0.4,0.1,0.6,0l2.4-0.5c0.2,0,0.4,0,0.6,0c0.2,0.1,0.4,0.2,0.5,0.3l2.1,1.9
	c-0.2-0.2-0.3-0.2-0.5-0.3c-0.2-0.1-0.4-0.1-0.6,0l-2.4,0.5c-0.2,0-0.4,0-0.6,0c-0.2-0.1-0.4-0.2-0.5-0.3l2.7,2.6
	c0.2,0.2,0.3,0.3,0.5,0.3c0.2,0.1,0.4,0.1,0.6,0l2.5-0.5c0.2-0.1,0.4,0,0.6,0c0.2,0.1,0.4,0.1,0.5,0.3l2,1.9
	c-0.2-0.1-0.3-0.2-0.5-0.3c-0.2-0.1-0.4-0.1-0.6,0l-2.4,0.5c-0.2,0.1-0.4,0-0.6,0c-0.2-0.1-0.4-0.2-0.5-0.3l2.7,2.6
	c0.2,0.2,0.3,0.3,0.5,0.3c0.2,0.1,0.4,0.1,0.6,0l3-0.7c-2.9,1.6-5.9,3.5-9.2,5.5c-1.9,1.2-4,1.5-6.4,0.5c-1.3-0.5-2.7-0.6-3.6-0.4
	c-1.2,0.2-2.1,0.9-2.7,1.9c0.5-0.2,0.9-0.3,1.5-0.3c1.1,0,2,0.4,2.8,1.1c-1.1-0.5-2.5-0.5-3.9,0c-2.4,0.9-3.8,3.2-3.3,5.2
	c-0.9,0.4-1.5,1.2-1.5,2.3c0,0.7,0.3,1.3,0.7,1.7c0.2-1.1,1.2-1.9,2.3-1.9c0.5,0.3,1,0.5,1.6,0.7c0.2-0.3,0.4-0.6,0.7-0.8
	c0-0.2,0-0.4,0-0.6c0-2.2,1.8-4,4-4c0.2,0,0.4,0,0.5,0c-1.8,0.4-3.1,2-3.1,3.9c0,0.2,0,0.5,0.1,0.7c-1,0.4-1.6,1.3-1.6,2.4
	c0,0.6,0.2,1.2,0.6,1.6c0.7-1.3,2-2.3,3.6-2.4c0.6,0.2,1.2,0.3,1.8,0.3c0.4,0,0.8,0,1.2-0.1c-0.3-0.5-0.5-1.1-0.5-1.8
	c0-1.7,1.4-3.1,3.1-3.1c0.2,0,0.3,0,0.4,0c-1.6,0.7-2.7,2.1-2.3,3.4c0.2,0.9,1.1,1.6,2.2,1.8c0,0.7-0.2,1.3-0.5,1.9
	c1.4-0.1,2.7-1,3.3-2.2c1.7-0.7,2.7-2.2,2.4-3.4c-0.1-0.5-0.4-0.9-0.8-1.2c0,0,0-0.1,0-0.1c0-0.9,0.7-1.7,1.6-1.7
	c0.9,0,1.7,0.7,1.7,1.7c0,0.4-0.2,0.8-0.4,1.1h3.4c0.2,0,0.4-0.1,0.6-0.2c0.2-0.1,0.3-0.2,0.5-0.4l2.2-3.3c0.1-0.1,0.2-0.2,0.3-0.3
	c0.1-0.1,0.3-0.1,0.4-0.1h2.7c-0.2,0-0.3,0-0.4,0.1c-0.1,0.1-0.2,0.2-0.3,0.3l-2.2,3.3c-0.1,0.2-0.3,0.3-0.5,0.4
	c-0.2,0.1-0.4,0.2-0.6,0.2h4.1c0.2,0,0.4-0.1,0.6-0.2c0.2-0.1,0.3-0.2,0.5-0.4l2.5-3.7c-1.7-0.9-2.4-2.6-2.4-4.8c0-1.4,0.8-3,0.9-4
	l0.1-0.4c0-0.2,0-0.4-0.1-0.6c-0.1-0.2-0.2-0.4-0.3-0.5l2.1,2.2c0.2,0.1,0.3,0.3,0.4,0.5c0.1,0.2,0.1,0.4,0.1,0.6l-0.1,0.5
	c-0.1,0.9-1.2,2.7,0.8,4.4c0.1,0.1,0.3,0.3,0.6,0.4l1.4,0.9v-5.3h2v5.9c0,0.2,0.1,0.4,0.2,0.6c0.1,0.2,0.2,0.3,0.4,0.5l2,1.2
	c0.2,0.1,0.4,0.2,0.6,0.2c0.2,0,0.4,0,0.6-0.1l3.6-1.6c-0.2,0.1-0.4,0.1-0.6,0.1c-0.2,0-0.4-0.1-0.6-0.2l-4.2-2.6
	c2-1.7,0.9-3.6,0.8-4.4l-0.1-0.5c0-0.2,0-0.4,0.1-0.6s0.2-0.4,0.4-0.5l2.1-2.2c-0.1,0.2-0.2,0.4-0.3,0.5c-0.1,0.2-0.1,0.4-0.1,0.6
	l0,0.4c0.2,1.5,1.7,4.1,0.4,5.6l3.8,2.4c0.2,0.1,0.4,0.2,0.6,0.2c0.2,0,0.4,0,0.6-0.1l3.8-1.6c-0.2,0.1-0.4,0.1-0.6,0.1
	c-0.2,0-0.4-0.1-0.6-0.2l-4.1-2.6c0.9-1.8,0.1-4.8-0.7-6.4l-0.1-0.3c-0.1-0.2-0.1-0.4-0.1-0.6c0-0.2,0.1-0.4,0.2-0.6l1.4-2.6
	c-0.1,0.2-0.2,0.4-0.2,0.6c0,0.2,0,0.4,0.1,0.6l0.5,1c0.3,0.5,0.4,0.8,0.7,1.4c2.3-2.1,2.8-4.1,1.4-5.8l-0.4-0.5
	c-0.1-0.2-0.2-0.4-0.3-0.5c-0.1-0.2-0.1-0.4,0-0.6l0.8-2.8c-0.1,0.2-0.1,0.4,0,0.6c0.1,0.2,0.1,0.4,0.3,0.6l1.4,1.7
	c2.8,3.2,1.1,7.3-2.2,10.4c0.2,0.6,0.4,1.7,0.2,2.3l4.5,2.8c0.2,0.1,0.4,0.2,0.6,0.2c0.2,0,0.4,0,0.6-0.1l3.2-1.4
	c-0.2,0.1-0.4,0.1-0.6,0.1c-0.8,0-1.5-0.7-1.5-1.5c0-0.7,0.4-1.2,1-1.4c12.3-3.7,23.6-13.4,31-13.4c3.6,0,6.5,2.2,6.5,4.9
	c0,0.4-0.1,0.9-0.2,1.3c-1.6,4.5,0.7,8.7,6.8,10.4c1,0.3,1.7,1.2,1.7,2.2c0,0.2,0,0.4-0.1,0.6c0.1,0,0.3,0,0.4,0
	c1.7,0,3.2-0.8,4.1-2.1c1,0,2.2-0.1,3.3-0.2c0.1,0.3,0.3,0.6,0.3,1c0.3,1.3-0.2,2.4-1,2.7c-1.4,0.4-3.1-0.1-4.4-0.1
	c-2.5,0-4.5,2.1-4.5,4.6c0,0.2,0,0.4,0,0.6c-0.8,0.5-1.3,1.4-1.3,2.4c0,0.5,0.1,1,0.4,1.4c0.8-0.9,1.8-1.6,2.9-2
	c0.1-2.2,1.9-4,4.1-4c0.3,0,0.7,0.1,1,0.1c-2.2,0.3-4,2.2-4,4.5c0,0.2,0,0.3,0,0.5c-0.3,0.3-0.4,0.8-0.4,1.2c0,0.6,0.3,1.1,0.7,1.5
	c0.4-0.9,1.5-1.8,2.8-2.3c0.9-0.3,1.8-0.4,2.5-0.2c-0.1-0.3-0.2-0.7-0.2-1.1c0-2,1.6-3.6,3.6-3.6c0.2,0,0.4,0,0.5,0
	c-1.4,0.2-2.4,1.4-2.4,2.8c0,1,0.5,1.8,1.2,2.3c0,0.1,0,0.1,0,0.2c0,0.8,0.4,1.5,0.9,1.9c0.3-1.3,1.4-2.3,2.8-2.3
	c1.2,0,2.1-0.1,2.9-0.4c1.2-0.4,2.1-1.5,2.1-2.9c0-1-0.4-1.8-1.1-2.3c0.3-1.5,0.3-4-0.3-6.1c0.1,0,0.2,0,0.3,0
	C145.8,392.6,146.5,393,147,393.7L147,393.7z M187.3,449V195h4.2v254H187.3z"/>
</svg>
