<svg xmlns="http://www.w3.org/2000/svg" viewBox="0 0 147.02 147.02"><defs><style>.cls-1{fill:#478aff;}</style></defs><title>Asset 1</title><g id="Layer_2" data-name="Layer 2"><g id="Layer_1-2" data-name="Layer 1"><path class="cls-1" d="M73.51,40A33.5,33.5,0,1,0,107,73.54h0A33.54,33.54,0,0,0,73.51,40Z"/><circle class="cls-1" cx="121.61" cy="27.75" r="15.26"/><path class="cls-1" d="M140.4,43.09l-.64-1.4-1,1.16a23,23,0,0,1-9.21,6.34l-1,.36.4,1A60.09,60.09,0,1,1,99.24,19.34l.94.45.41-1a22.89,22.89,0,0,1,6.78-8.89l1.2-1-1.37-.71A72.67,72.67,0,0,0,73.5,0a73.51,73.51,0,1,0,66.89,43Z"/></g></g></svg>