<svg xmlns="http://www.w3.org/2000/svg" xmlns:xlink="http://www.w3.org/1999/xlink" viewBox="0 0 115.11875 24.187275"><g transform="translate(-11.56225 -11.12422)"><path d="m44.6875 11.1875-.6875 1.28125-5.3125 9.65625-.6875 1.21875.6875 1.21875 5.3125 9.34375.71875 1.28125h1.46875 10.875 1.5625l.6875-1.40625 3.96875-8 1.78125-3.625h-4.03125l-10.15625.03125c-1.320782-.01868-2.535605 1.179086-2.535605 2.5s1.214823 2.518679 2.535605 2.5l6.125-.03125-1.5 3.03125h-7.875l-3.90625-6.875 3.9375-7.125h8.377221l1.953125 4.007812h5.03125l-3.171875-7.601562-.6875-1.40625h-1.5625-11.408471z" fill="#090"/><use height="1052.3622" transform="matrix(-1 0 0 1 111.13905 .04841623)" width="744.09448" xlink:href="#a"/><g transform="translate(.10586251 .33010228)"><use height="1052.3622" transform="matrix(-1 0 0 1 228.92583 0)" width="744.09448" xlink:href="#b"/></g></g></svg>